<svg version="1.1" id="Layer_1" xmlns="http://www.w3.org/2000/svg" xmlns:xlink="http://www.w3.org/1999/xlink" x="0px" y="0px"
	 width="100%" viewBox="0 0 500 500" enable-background="new 0 0 500 500" xml:space="preserve">
<path fill="#000000" opacity="1.000000" stroke="none" 
	d="
M344.000000,501.000000 
	C229.333359,501.000000 115.166718,501.000000 1.000061,501.000000 
	C1.000041,334.333405 1.000041,167.666794 1.000020,1.000151 
	C167.666565,1.000100 334.333130,1.000100 500.999756,1.000050 
	C500.999847,167.666519 500.999847,334.333038 500.999939,500.999786 
	C448.833344,501.000000 396.666656,501.000000 344.000000,501.000000 
M177.771912,136.571884 
	C172.951553,136.728729 167.955048,136.130264 163.348679,137.204590 
	C154.601608,139.244659 146.247070,136.476028 137.714188,136.325241 
	C130.261993,136.193527 122.596161,133.330658 115.603096,138.966553 
	C110.055000,143.437897 106.347427,150.089279 108.317802,156.384628 
	C114.453064,151.666840 120.174187,147.267502 126.177170,142.651428 
	C130.254013,143.955704 135.290771,145.681900 140.396637,147.171127 
	C146.607361,148.982635 152.876282,150.594543 158.781601,152.877823 
	C155.635101,156.319321 152.119278,159.494537 149.410492,163.251617 
	C140.858444,175.113174 133.393219,187.456039 128.511826,201.522644 
	C123.916031,214.766266 120.438515,228.072144 120.128754,241.991867 
	C119.878998,253.215195 120.796074,264.464478 121.205956,275.997314 
	C116.808090,275.997314 112.001305,275.913574 107.198326,276.013458 
	C94.036880,276.287109 84.319794,283.656830 85.918190,298.309357 
	C86.790718,306.307831 94.398933,313.868652 102.412773,314.036591 
	C108.499496,314.164154 114.579773,314.599762 121.086418,315.559570 
	C124.355209,319.154266 127.059097,315.748199 130.776031,314.920197 
	C134.191086,314.187927 137.017410,313.397430 139.976517,317.174805 
	C145.896057,324.731293 152.301270,332.029999 159.293777,338.596161 
	C171.547028,350.102325 185.983643,358.269714 202.281708,362.552734 
	C210.350067,364.673035 218.791336,366.903107 226.986267,366.642517 
	C238.319153,366.282166 249.578812,363.618958 260.995117,361.923340 
	C260.995117,366.681061 261.395416,371.877991 260.905121,376.989502 
	C260.086426,385.524475 258.440094,393.811401 252.221329,400.556244 
	C250.864517,402.027832 250.438843,405.341644 251.017014,407.405701 
	C252.166641,411.509644 254.118210,415.440552 256.173309,419.205566 
	C256.736786,420.237823 258.821625,420.852783 260.245575,420.924957 
	C264.566650,421.144043 269.021698,420.364624 273.216309,421.124115 
	C285.391479,423.328613 296.740417,421.769440 307.364624,415.356354 
	C308.202423,416.282013 309.089020,417.261566 309.975586,418.241119 
	C309.574310,417.641998 309.173065,417.042847 308.771790,416.443726 
	C319.874084,405.519196 330.976349,394.594666 342.673950,383.084351 
	C331.687866,384.051117 320.772461,384.994873 309.861450,385.986542 
	C307.784698,386.175293 305.704224,386.840851 303.668671,386.692749 
	C302.928040,386.638855 301.648529,384.777557 301.752319,383.871185 
	C302.302582,379.067841 303.685028,374.326752 303.897369,369.525116 
	C304.265045,361.210358 303.727753,352.853943 304.148773,344.544342 
	C304.261414,342.321075 306.000610,339.638367 307.802399,338.139526 
	C314.403687,332.648102 322.029510,328.231812 327.960785,322.137054 
	C333.482300,316.463348 339.190552,313.769836 346.979065,313.920319 
	C361.970276,314.209991 376.971069,314.022644 391.967834,313.996796 
	C398.927429,313.984802 408.021667,307.301910 408.902863,300.883270 
	C410.912170,286.246826 404.465393,277.299103 388.902710,276.116943 
	C380.043365,275.443939 371.091034,275.995239 362.421844,275.995239 
	C365.208069,267.037354 368.152527,258.603912 370.367157,249.982986 
	C371.365723,246.095856 372.423889,243.286392 376.225800,241.007858 
	C384.797211,235.870880 385.230072,219.523087 373.954132,216.851410 
	C373.121948,216.654236 372.253021,215.018143 372.067871,213.936859 
	C370.621338,205.489288 369.740417,196.926529 367.927429,188.563522 
	C362.820862,165.007828 350.794830,145.416977 331.897125,130.558182 
	C313.830444,116.352798 292.719360,108.619347 270.036560,106.155716 
	C247.762970,103.736519 226.491028,108.598953 205.431290,117.997482 
	C195.713867,115.420784 191.357529,118.465134 187.803024,124.746742 
	C186.875916,126.385117 186.403946,128.281021 185.210052,130.450317 
	C182.858597,132.247116 180.507141,134.043915 177.771912,136.571884 
z"/>
<path fill="#FCFDFD" opacity="1.000000" stroke="none" 
	d="
M206.289307,118.172699 
	C226.491028,108.598953 247.762970,103.736519 270.036560,106.155716 
	C292.719360,108.619347 313.830444,116.352798 331.897125,130.558182 
	C350.794830,145.416977 362.820862,165.007828 367.927429,188.563522 
	C369.740417,196.926529 370.621338,205.489288 372.067871,213.936859 
	C372.253021,215.018143 373.121948,216.654236 373.954132,216.851410 
	C385.230072,219.523087 384.797211,235.870880 376.225800,241.007858 
	C372.423889,243.286392 371.365723,246.095856 370.367157,249.982986 
	C368.152527,258.603912 365.208069,267.037354 362.421844,275.995239 
	C371.091034,275.995239 380.043365,275.443939 388.902710,276.116943 
	C404.465393,277.299103 410.912170,286.246826 408.902863,300.883270 
	C408.021667,307.301910 398.927429,313.984802 391.967834,313.996796 
	C376.971069,314.022644 361.970276,314.209991 346.979065,313.920319 
	C339.190552,313.769836 333.482300,316.463348 327.960785,322.137054 
	C322.029510,328.231812 314.403687,332.648102 307.802399,338.139526 
	C306.000610,339.638367 304.261414,342.321075 304.148773,344.544342 
	C303.727753,352.853943 304.265045,361.210358 303.897369,369.525116 
	C303.685028,374.326752 302.302582,379.067841 301.752319,383.871185 
	C301.648529,384.777557 302.928040,386.638855 303.668671,386.692749 
	C305.704224,386.840851 307.784698,386.175293 309.861450,385.986542 
	C320.772461,384.994873 331.687866,384.051117 342.673950,383.084351 
	C330.976349,394.594666 319.874084,405.519196 308.771790,416.443726 
	C309.173065,417.042847 309.574310,417.641998 309.975586,418.241119 
	C309.089020,417.261566 308.202423,416.282013 307.364624,415.356354 
	C296.740417,421.769440 285.391479,423.328613 273.216309,421.124115 
	C269.021698,420.364624 264.566650,421.144043 260.245575,420.924957 
	C258.821625,420.852783 256.736786,420.237823 256.173309,419.205566 
	C254.118210,415.440552 252.166641,411.509644 251.017014,407.405701 
	C250.438843,405.341644 250.864517,402.027832 252.221329,400.556244 
	C258.440094,393.811401 260.086426,385.524475 260.905121,376.989502 
	C261.395416,371.877991 260.995117,366.681061 260.995117,361.923340 
	C249.578812,363.618958 238.319153,366.282166 226.986267,366.642517 
	C218.791336,366.903107 210.350067,364.673035 202.281708,362.552734 
	C185.983643,358.269714 171.547028,350.102325 159.293777,338.596161 
	C152.301270,332.029999 145.896057,324.731293 139.976517,317.174805 
	C137.017410,313.397430 134.191086,314.187927 130.182098,314.593384 
	C129.230545,313.922699 128.677353,313.640686 128.546021,313.225311 
	C127.425438,309.681396 130.553101,303.362488 133.994537,301.825806 
	C134.794403,301.468628 135.959259,300.571045 135.941986,299.950317 
	C135.754868,293.228455 140.923950,290.570984 145.306290,287.344696 
	C150.146027,283.781708 155.060547,280.320343 160.389542,276.877869 
	C163.233002,276.941040 165.629425,276.941040 168.069199,276.941040 
	C167.670929,274.519318 167.361893,272.640289 167.452438,270.816650 
	C168.579742,271.327820 169.253433,271.950500 170.045670,272.207184 
	C172.165863,272.894043 174.319763,273.645721 176.503296,273.814148 
	C176.901352,273.844879 177.502579,271.241302 178.350525,269.971863 
	C180.877594,277.053467 186.210236,277.154480 192.321472,277.073700 
	C213.765518,276.790283 235.215576,276.963776 256.663361,276.963776 
	C258.428772,276.963776 260.194153,276.963776 261.805847,276.963776 
	C261.805847,268.784241 261.805847,261.225098 261.805847,253.355270 
	C243.686615,253.931732 225.934875,254.560287 208.179047,255.036743 
	C198.040680,255.308762 193.572906,251.075409 193.166626,240.733856 
	C197.599548,236.725006 201.395508,232.193069 206.222809,229.532104 
	C211.074677,226.857605 214.230057,223.524170 216.399231,218.381012 
	C218.247070,217.205887 219.744446,216.203140 221.797165,214.828506 
	C224.300613,217.830322 226.691635,220.697311 228.421585,222.771637 
	C231.634750,221.214615 233.892975,219.216553 236.214325,219.140320 
	C252.813889,218.595108 269.425598,218.382355 286.034912,218.185165 
	C296.094543,218.065735 306.156738,218.163162 316.380920,218.163162 
	C312.334747,186.863312 288.380219,158.805176 253.765320,150.332703 
	C250.937958,144.851028 246.806625,141.806732 241.041565,140.423553 
	C238.478455,139.808594 236.260696,137.754211 234.344940,136.307053 
	C270.373810,134.949127 320.525726,161.301971 329.399811,216.399704 
	C339.186462,216.399704 348.918030,216.399704 359.551147,216.399704 
	C358.266205,208.514069 357.530365,201.238846 355.852600,194.187729 
	C349.192627,166.197586 334.075989,144.443665 308.025391,131.128265 
	C280.559509,117.089447 252.284195,114.406700 222.722397,125.377563 
	C220.378799,124.634354 218.430145,123.970924 216.481506,123.307495 
	C216.695679,124.817924 216.909851,126.328354 216.753296,127.955330 
	C214.452301,128.918335 212.522049,129.764816 210.631042,130.183655 
	C209.209961,125.894913 207.749634,122.033806 206.289307,118.172699 
M202.003113,288.964783 
	C200.615936,289.003021 199.228775,289.041229 197.252792,289.000275 
	C196.426208,288.488373 195.599625,287.976471 194.994705,286.673035 
	C196.977875,285.874237 198.961029,285.075470 200.944199,284.276672 
	C198.279053,283.529663 195.658768,283.977142 193.079239,283.806976 
	C186.695160,283.385834 181.996964,287.555328 181.209518,294.165314 
	C179.343887,296.498138 178.916397,298.591522 182.162598,300.835663 
	C182.446793,305.192932 184.476837,308.071289 189.385544,309.507965 
	C192.957764,309.651215 196.529984,309.794464 200.777740,309.742401 
	C202.163574,308.754944 203.549408,307.767487 204.977234,307.339172 
	C205.138062,307.621460 205.277725,307.920197 205.474869,308.174316 
	C205.522842,308.236176 205.817917,308.209595 205.901260,308.125946 
	C209.642807,304.370392 209.464676,299.700867 209.069351,294.210510 
	C207.347626,291.336090 205.625885,288.461670 203.904160,285.587250 
	C203.546860,285.855347 203.189575,286.123474 202.832291,286.391571 
	C202.832291,287.252838 202.832291,288.114075 202.003113,288.964783 
M339.844391,241.035156 
	C343.071716,241.180222 347.752838,238.233429 347.720825,245.134903 
	C354.775116,241.070023 361.621063,237.305939 368.240112,233.178055 
	C369.804260,232.202576 370.605438,230.003723 371.757599,228.367630 
	C370.029205,227.579163 368.351471,226.629791 366.553192,226.063126 
	C365.491791,225.728683 364.238678,225.972870 363.073029,226.003387 
	C339.108612,226.630890 315.145874,227.330185 291.179626,227.877625 
	C271.554535,228.325897 251.925903,228.709320 232.297379,228.799408 
	C229.825195,228.810760 227.344040,226.860535 223.562027,225.270523 
	C218.658707,228.993958 212.089798,233.803360 205.773987,238.924881 
	C204.466324,239.985275 204.099319,242.205658 203.298782,243.891418 
	C204.991562,244.315308 206.692612,245.134521 208.375793,245.099319 
	C219.859955,244.858994 231.338272,244.322845 242.822678,244.113022 
	C252.409576,243.937866 262.002228,244.077072 272.158875,244.077072 
	C272.158875,255.007401 272.158875,265.901215 272.158875,276.738770 
	C280.000763,276.738770 287.273254,276.738770 295.423065,276.738770 
	C295.423065,265.460785 295.423065,254.395370 295.423065,242.883469 
	C310.194916,242.340805 324.108124,241.829666 337.993439,242.071884 
	C339.102020,244.830627 340.210571,247.589386 341.498322,250.794083 
	C339.034210,250.903931 336.094269,250.811646 333.239166,251.259750 
	C331.882812,251.472641 329.787415,252.516098 329.563599,253.524399 
	C327.861664,261.192017 326.539948,268.944031 325.044464,276.966431 
	C331.603943,276.966431 337.907959,277.000366 344.210754,276.927979 
	C345.103638,276.917694 346.542847,276.635590 346.796875,276.064545 
	C350.226807,268.353943 353.491547,260.569855 356.797150,252.803970 
	C356.355896,252.630219 355.914642,252.456482 355.473389,252.282745 
	C353.850525,253.008316 352.227661,253.733887 350.384338,254.558029 
	C346.483154,250.009644 342.711700,245.612549 339.844391,241.035156 
M167.260010,328.248413 
	C168.414108,329.202393 169.556931,330.170349 170.723953,331.108215 
	C196.880997,352.128296 225.800507,358.737762 258.032806,347.719574 
	C259.547241,347.201935 261.816406,345.943939 261.940216,344.831177 
	C262.405487,340.649078 262.126740,336.384216 262.126740,332.008820 
	C245.166916,332.870300 229.655533,329.327209 215.827728,321.463165 
	C205.239212,315.441315 194.778366,312.454132 182.824341,313.589050 
	C178.536514,313.996124 174.177567,313.654327 169.851089,313.654327 
	C164.771164,313.654327 159.691254,313.654327 154.611328,313.654327 
	C154.400558,314.046295 154.189789,314.438293 153.979004,314.830261 
	C158.214294,319.165222 162.449570,323.500214 167.260010,328.248413 
M293.998718,316.620636 
	C293.269043,315.632904 292.568848,313.815094 291.805023,313.787933 
	C285.364105,313.558929 278.911530,313.657410 271.999847,313.657410 
	C271.999847,315.739441 271.999847,317.366760 271.999847,318.994080 
	C271.999847,334.654510 272.134949,350.316467 271.962555,365.975006 
	C271.783478,382.242706 270.794678,398.343506 257.516083,410.926666 
	C266.480652,411.462280 275.215820,411.382965 283.948975,411.480865 
	C296.993774,411.627106 305.504150,403.072937 315.563843,396.027069 
	C304.445099,396.833191 294.207153,397.575409 283.969238,398.317657 
	C283.858856,397.814545 283.748474,397.311432 283.638092,396.808319 
	C289.678894,389.431976 292.686890,380.902130 292.939972,371.529968 
	C293.425201,353.558868 293.660919,335.581024 293.998718,316.620636 
M223.627304,286.934723 
	C220.025833,286.057190 216.424377,285.179626 212.568115,284.240021 
	C212.568115,293.704254 212.568115,301.743774 212.568115,310.021179 
	C214.747131,310.021179 216.571884,309.931091 218.384766,310.039612 
	C222.351929,310.277069 224.535583,308.109894 224.618607,304.514740 
	C224.747986,298.911499 224.256256,293.293884 223.627304,286.934723 
M241.090118,290.903473 
	C240.070999,284.812378 237.669800,283.753296 229.249939,285.622864 
	C229.249939,293.702911 229.249939,301.759491 229.249939,310.001099 
	C230.740952,310.001099 231.893692,310.000519 233.046448,310.001221 
	C239.841461,310.005371 241.065781,308.782166 241.132660,301.797424 
	C241.164505,298.472046 241.116333,295.145905 241.090118,290.903473 
M304.844482,272.366852 
	C304.908752,273.810913 304.972992,275.254974 305.080994,277.682159 
	C307.676575,276.831726 311.269867,276.622620 311.691498,275.356934 
	C314.165955,267.929016 315.899872,260.254395 317.971680,252.325592 
	C313.106537,252.325592 309.380127,252.325592 304.925629,252.325592 
	C304.925629,258.898468 304.925629,265.147491 304.844482,272.366852 
M311.209503,307.488892 
	C315.362030,299.728546 307.438843,295.815979 304.814301,290.358429 
	C307.450043,291.165161 309.480682,291.786682 311.511322,292.408173 
	C311.936798,291.835815 312.362274,291.263458 312.787750,290.691101 
	C311.141602,288.793365 309.816315,286.014648 307.752747,285.263123 
	C305.943481,284.604218 301.945923,285.609680 301.336456,286.967133 
	C300.289246,289.299713 300.740082,292.560364 301.312286,295.273193 
	C301.683594,297.033569 303.386566,298.513092 304.766815,300.516052 
	C302.155823,300.916504 300.595947,301.155731 299.061035,301.391144 
	C299.767029,309.807617 304.572906,312.476440 311.209503,307.488892 
M257.305725,296.360291 
	C259.008270,289.944733 258.102173,286.580231 254.308853,285.232117 
	C248.297592,283.095795 244.503357,287.105133 245.552277,294.722351 
	C246.961655,294.722351 248.401169,294.722351 250.000977,294.722351 
	C250.164444,293.875031 250.257645,293.063690 250.486984,292.292877 
	C250.729156,291.478973 251.101135,290.703674 251.416397,289.911499 
	C254.650879,298.238312 243.885117,301.927979 245.305603,309.797363 
	C249.536133,309.797363 253.631439,309.797363 258.065643,309.797363 
	C257.965790,308.173126 257.880493,306.785767 257.792969,305.361938 
	C255.708664,305.193756 253.991211,305.055206 251.695786,304.869995 
	C253.695511,301.940796 255.348892,299.518860 257.305725,296.360291 
M286.639130,284.947754 
	C285.828339,285.697845 284.331635,286.431519 284.313202,287.200592 
	C284.135651,294.617615 284.206757,302.040649 284.206757,309.626617 
	C286.119415,309.626617 287.612915,309.626617 289.452515,309.626617 
	C289.452515,306.292938 289.452515,303.354523 289.452515,300.483337 
	C295.013092,299.532745 295.812073,299.100677 296.320557,295.186310 
	C297.355896,287.215881 295.108826,283.924591 286.639130,284.947754 
M249.480576,313.590851 
	C246.158493,313.590851 242.836426,313.590790 239.514343,313.590790 
	C236.271484,313.590790 233.028625,313.590820 229.785782,313.590820 
	C240.111267,317.945099 250.529053,320.841980 261.915192,319.654816 
	C261.915192,317.575714 261.915192,315.821167 261.915192,313.590942 
	C258.031097,313.590942 254.250381,313.590942 249.480576,313.590851 
M261.040283,286.460449 
	C264.128418,291.297913 264.402679,296.650360 264.029510,302.163483 
	C263.863678,304.613525 264.001526,307.084137 264.001526,309.765686 
	C265.793701,309.765686 267.185425,309.765686 268.834778,309.765686 
	C269.642151,301.492401 267.115997,292.980347 273.153503,284.615173 
	C267.986572,285.025604 264.576477,285.296478 261.040283,286.460449 
M275.830414,309.745941 
	C277.212189,309.745941 278.593994,309.745941 279.888306,309.745941 
	C279.888306,301.260040 279.888306,293.231262 279.888306,284.863525 
	C278.184631,285.044128 276.816040,285.189209 275.318481,285.347961 
	C275.318481,293.487061 275.318481,301.234436 275.830414,309.745941 
M304.024689,323.392181 
	C308.155579,320.605225 312.286469,317.818268 316.417358,315.031311 
	C316.131592,314.669159 315.845825,314.307037 315.560059,313.944885 
	C311.807892,313.944885 308.055695,313.944885 303.868256,313.944885 
	C303.868256,317.022919 303.868256,319.809265 304.024689,323.392181 
z"/>
<path fill="#02BF64" opacity="1.000000" stroke="none" 
	d="
M216.048782,218.553375 
	C214.230057,223.524170 211.074677,226.857605 206.222809,229.532104 
	C201.395508,232.193069 197.599548,236.725006 192.913910,240.949570 
	C188.204514,246.621109 184.277283,252.128082 179.539215,256.815430 
	C176.386719,259.934174 176.592972,262.997070 177.293579,266.570557 
	C177.509033,267.669525 177.769913,268.759613 178.010010,269.853760 
	C177.502579,271.241302 176.901352,273.844879 176.503296,273.814148 
	C174.319763,273.645721 172.165863,272.894043 170.045670,272.207184 
	C169.253433,271.950500 168.579742,271.327820 167.405640,270.469299 
	C165.737915,270.335510 164.027817,270.196808 163.394287,270.956207 
	C161.961517,272.673645 161.060043,274.834290 159.942505,276.814697 
	C155.060547,280.320343 150.146027,283.781708 145.306290,287.344696 
	C140.923950,290.570984 135.754868,293.228455 135.941986,299.950317 
	C135.959259,300.571045 134.794403,301.468628 133.994537,301.825806 
	C130.553101,303.362488 127.425438,309.681396 128.546021,313.225311 
	C128.677353,313.640686 129.230545,313.922699 129.776489,314.554871 
	C127.059097,315.748199 124.355209,319.154266 120.938873,314.866638 
	C118.813393,310.132477 115.920609,306.244141 118.898354,301.427826 
	C119.156090,301.010925 118.791298,300.183594 118.663177,299.557617 
	C117.218010,292.496429 119.003891,290.082062 126.084045,288.831299 
	C132.818604,287.641571 137.636536,284.021027 139.724060,276.904907 
	C141.813828,273.553925 143.202118,269.980072 145.645309,267.408417 
	C148.310257,264.603363 149.582092,260.151825 154.596786,259.674042 
	C159.630035,259.194458 161.576385,255.762482 161.426300,250.686310 
	C162.576080,249.047577 163.274734,247.471390 164.326172,246.183121 
	C165.440948,244.817261 167.581985,243.955460 168.076279,242.473709 
	C170.371384,235.593689 172.250641,228.574936 173.737579,223.465408 
	C168.725067,218.925293 165.371109,215.887421 162.023468,212.406403 
	C162.443298,208.472458 162.639969,204.937790 163.334335,201.503784 
	C163.966965,198.375076 165.139572,195.355545 166.405792,192.145737 
	C168.840958,190.301376 171.183624,188.819778 172.999222,186.851913 
	C177.001480,182.513947 174.030060,177.105316 174.930267,171.867035 
	C177.314880,166.217255 177.355301,161.419235 172.048523,157.385086 
	C167.896347,151.492996 164.736221,150.316711 159.120010,152.292786 
	C152.876282,150.594543 146.607361,148.982635 140.396637,147.171127 
	C135.290771,145.681900 130.254013,143.955704 126.177170,142.651428 
	C120.174187,147.267502 114.453064,151.666840 108.317802,156.384628 
	C106.347427,150.089279 110.055000,143.437897 115.603096,138.966553 
	C122.596161,133.330658 130.261993,136.193527 137.714188,136.325241 
	C146.247070,136.476028 154.601608,139.244659 163.348679,137.204590 
	C167.955048,136.130264 172.951553,136.728729 178.323914,136.377930 
	C180.599762,136.508453 182.568680,137.497650 183.980957,136.976974 
	C185.499496,136.417084 186.757996,134.576324 187.572006,133.005356 
	C187.842758,132.482788 186.388550,131.066406 185.722931,130.058655 
	C186.403946,128.281021 186.875916,126.385117 187.803024,124.746742 
	C191.357529,118.465134 195.713867,115.420784 205.860291,118.085091 
	C207.749634,122.033806 209.209961,125.894913 210.450287,130.470551 
	C210.141571,133.122070 210.052902,135.059036 209.954407,137.210526 
	C213.936768,137.747681 217.495270,138.227661 221.053772,138.707642 
	C221.193497,138.393448 221.333206,138.079254 221.472931,137.765060 
	C219.036774,135.721497 216.600616,133.677933 213.087967,130.731354 
	C216.037201,131.191605 217.479477,131.416672 219.529999,131.736679 
	C218.481461,130.037949 217.802734,128.938370 217.124023,127.838791 
	C216.909851,126.328354 216.695679,124.817924 216.481506,123.307495 
	C218.430145,123.970924 220.378799,124.634354 223.004486,125.519554 
	C229.178925,127.263214 230.391983,132.904984 233.886185,136.353180 
	C236.260696,137.754211 238.478455,139.808594 241.041565,140.423553 
	C246.806625,141.806732 250.937958,144.851028 253.727539,150.716660 
	C252.261551,152.554596 250.723022,154.601059 248.960312,154.816940 
	C244.009094,155.423248 238.960770,155.186218 233.959747,155.451553 
	C229.578354,155.684006 224.237778,155.441986 222.250702,159.913116 
	C218.600021,168.127502 216.240219,176.905731 212.965164,185.301819 
	C211.707489,188.526047 209.153076,191.226532 207.701080,194.399750 
	C206.858246,196.241699 206.511154,198.634933 206.842026,200.630722 
	C207.985657,207.529465 211.480347,213.346893 216.048782,218.553375 
z"/>
<path fill="#FDFEFE" opacity="1.000000" stroke="none" 
	d="
M158.950806,152.585312 
	C164.736221,150.316711 167.896347,151.492996 171.766724,157.603027 
	C166.559448,164.090378 161.019531,169.686356 156.576904,176.048523 
	C136.222672,205.197220 129.216629,237.447922 135.118073,272.504730 
	C135.542358,275.025146 136.005264,277.499969 139.487381,277.123566 
	C137.636536,284.021027 132.818604,287.641571 126.084045,288.831299 
	C119.003891,290.082062 117.218010,292.496429 118.663177,299.557617 
	C118.791298,300.183594 119.156090,301.010925 118.898354,301.427826 
	C115.920609,306.244141 118.813393,310.132477 120.727119,314.536011 
	C114.579773,314.599762 108.499496,314.164154 102.412773,314.036591 
	C94.398933,313.868652 86.790718,306.307831 85.918190,298.309357 
	C84.319794,283.656830 94.036880,276.287109 107.198326,276.013458 
	C112.001305,275.913574 116.808090,275.997314 121.205956,275.997314 
	C120.796074,264.464478 119.878998,253.215195 120.128754,241.991867 
	C120.438515,228.072144 123.916031,214.766266 128.511826,201.522644 
	C133.393219,187.456039 140.858444,175.113174 149.410492,163.251617 
	C152.119278,159.494537 155.635101,156.319321 158.950806,152.585312 
z"/>
<path fill="#E1FCF1" opacity="1.000000" stroke="none" 
	d="
M185.466492,130.254486 
	C186.388550,131.066406 187.842758,132.482788 187.572006,133.005356 
	C186.757996,134.576324 185.499496,136.417084 183.980957,136.976974 
	C182.568680,137.497650 180.599762,136.508453 178.515778,136.012360 
	C180.507141,134.043915 182.858597,132.247116 185.466492,130.254486 
z"/>
<path fill="#171723" opacity="1.000000" stroke="none" 
	d="
M216.399231,218.381012 
	C211.480347,213.346893 207.985657,207.529465 206.842026,200.630722 
	C206.511154,198.634933 206.858246,196.241699 207.701080,194.399750 
	C209.153076,191.226532 211.707489,188.526047 212.965164,185.301819 
	C216.240219,176.905731 218.600021,168.127502 222.250702,159.913116 
	C224.237778,155.441986 229.578354,155.684006 233.959747,155.451553 
	C238.960770,155.186218 244.009094,155.423248 248.960312,154.816940 
	C250.723022,154.601059 252.261551,152.554596 253.940216,150.959808 
	C288.380219,158.805176 312.334747,186.863312 316.380920,218.163162 
	C306.156738,218.163162 296.094543,218.065735 286.034912,218.185165 
	C269.425598,218.382355 252.813889,218.595108 236.214325,219.140320 
	C233.892975,219.216553 231.634750,221.214615 228.421585,222.771637 
	C226.691635,220.697311 224.300613,217.830322 221.797165,214.828506 
	C219.744446,216.203140 218.247070,217.205887 216.399231,218.381012 
z"/>
<path fill="#5F19EB" opacity="1.000000" stroke="none" 
	d="
M234.344940,136.307053 
	C230.391983,132.904984 229.178925,127.263214 223.399445,125.599335 
	C252.284195,114.406700 280.559509,117.089447 308.025391,131.128265 
	C334.075989,144.443665 349.192627,166.197586 355.852600,194.187729 
	C357.530365,201.238846 358.266205,208.514069 359.551147,216.399704 
	C348.918030,216.399704 339.186462,216.399704 329.399811,216.399704 
	C320.525726,161.301971 270.373810,134.949127 234.344940,136.307053 
z"/>
<path fill="#04C066" opacity="1.000000" stroke="none" 
	d="
M338.021332,241.318542 
	C324.108124,241.829666 310.194916,242.340805 295.423065,242.883469 
	C295.423065,254.395370 295.423065,265.460785 295.423065,276.738770 
	C287.273254,276.738770 280.000763,276.738770 272.158875,276.738770 
	C272.158875,265.901215 272.158875,255.007401 272.158875,244.077072 
	C262.002228,244.077072 252.409576,243.937866 242.822678,244.113022 
	C231.338272,244.322845 219.859955,244.858994 208.375793,245.099319 
	C206.692612,245.134521 204.991562,244.315308 203.298782,243.891418 
	C204.099319,242.205658 204.466324,239.985275 205.773987,238.924881 
	C212.089798,233.803360 218.658707,228.993958 223.562027,225.270523 
	C227.344040,226.860535 229.825195,228.810760 232.297379,228.799408 
	C251.925903,228.709320 271.554535,228.325897 291.179626,227.877625 
	C315.145874,227.330185 339.108612,226.630890 363.073029,226.003387 
	C364.238678,225.972870 365.491791,225.728683 366.553192,226.063126 
	C368.351471,226.629791 370.029205,227.579163 371.757568,228.367630 
	C370.605438,230.003723 369.804260,232.202576 368.240112,233.178055 
	C361.621063,237.305939 354.775116,241.070023 347.720825,245.134903 
	C347.752838,238.233429 343.071716,241.180222 339.157166,241.101959 
	C338.469940,241.168747 338.021332,241.318527 338.021332,241.318542 
z"/>
<path fill="#5F19EB" opacity="1.000000" stroke="none" 
	d="
M166.972427,328.041809 
	C162.449570,323.500214 158.214294,319.165222 153.979004,314.830261 
	C154.189789,314.438293 154.400558,314.046295 154.611328,313.654327 
	C159.691254,313.654327 164.771164,313.654327 169.851089,313.654327 
	C174.177567,313.654327 178.536514,313.996124 182.824341,313.589050 
	C194.778366,312.454132 205.239212,315.441315 215.827728,321.463165 
	C229.655533,329.327209 245.166916,332.870300 262.126740,332.008820 
	C262.126740,336.384216 262.405487,340.649078 261.940216,344.831177 
	C261.816406,345.943939 259.547241,347.201935 258.032806,347.719574 
	C225.800507,358.737762 196.880997,352.128296 170.723953,331.108215 
	C169.556931,330.170349 168.414108,329.202393 166.972427,328.041809 
z"/>
<path fill="#04C065" opacity="1.000000" stroke="none" 
	d="
M293.999420,317.113281 
	C293.660919,335.581024 293.425201,353.558868 292.939972,371.529968 
	C292.686890,380.902130 289.678894,389.431976 283.638092,396.808319 
	C283.748474,397.311432 283.858856,397.814545 283.969238,398.317657 
	C294.207153,397.575409 304.445099,396.833191 315.563843,396.027069 
	C305.504150,403.072937 296.993774,411.627106 283.948975,411.480865 
	C275.215820,411.382965 266.480652,411.462280 257.516083,410.926666 
	C270.794678,398.343506 271.783478,382.242706 271.962555,365.975006 
	C272.134949,350.316467 271.999847,334.654510 271.999847,318.994080 
	C271.999847,317.366760 271.999847,315.739441 271.999847,313.657410 
	C278.911530,313.657410 285.364105,313.558929 291.805023,313.787933 
	C292.568848,313.815094 293.269043,315.632904 293.999420,317.113281 
z"/>
<path fill="#171723" opacity="1.000000" stroke="none" 
	d="
M178.350525,269.971863 
	C177.769913,268.759613 177.509033,267.669525 177.293579,266.570557 
	C176.592972,262.997070 176.386719,259.934174 179.539215,256.815430 
	C184.277283,252.128082 188.204514,246.621109 192.729187,241.246887 
	C193.572906,251.075409 198.040680,255.308762 208.179047,255.036743 
	C225.934875,254.560287 243.686615,253.931732 261.805847,253.355270 
	C261.805847,261.225098 261.805847,268.784241 261.805847,276.963776 
	C260.194153,276.963776 258.428772,276.963776 256.663361,276.963776 
	C235.215576,276.963776 213.765518,276.790283 192.321472,277.073700 
	C186.210236,277.154480 180.877594,277.053467 178.350525,269.971863 
z"/>
<path fill="#611CEB" opacity="1.000000" stroke="none" 
	d="
M338.007385,241.695206 
	C338.021332,241.318527 338.469940,241.168747 338.705109,241.192108 
	C342.711700,245.612549 346.483154,250.009644 350.384338,254.558029 
	C352.227661,253.733887 353.850525,253.008316 355.473389,252.282745 
	C355.914642,252.456482 356.355896,252.630219 356.797150,252.803970 
	C353.491547,260.569855 350.226807,268.353943 346.796875,276.064545 
	C346.542847,276.635590 345.103638,276.917694 344.210754,276.927979 
	C337.907959,277.000366 331.603943,276.966431 325.044464,276.966431 
	C326.539948,268.944031 327.861664,261.192017 329.563599,253.524399 
	C329.787415,252.516098 331.882812,251.472641 333.239166,251.259750 
	C336.094269,250.811646 339.034210,250.903931 341.498322,250.794083 
	C340.210571,247.589386 339.102020,244.830627 338.007385,241.695206 
z"/>
<path fill="#0FC36C" opacity="1.000000" stroke="none" 
	d="
M223.827515,287.308533 
	C224.256256,293.293884 224.747986,298.911499 224.618607,304.514740 
	C224.535583,308.109894 222.351929,310.277069 218.384766,310.039612 
	C216.571884,309.931091 214.747131,310.021179 212.568115,310.021179 
	C212.568115,301.743774 212.568115,293.704254 212.568115,284.240021 
	C216.424377,285.179626 220.025833,286.057190 223.827515,287.308533 
M218.480637,305.276306 
	C220.666916,301.432037 220.468491,292.309998 217.663132,288.964905 
	C217.663132,294.630798 217.663132,299.751465 218.480637,305.276306 
z"/>
<path fill="#04C066" opacity="1.000000" stroke="none" 
	d="
M241.097260,291.361816 
	C241.116333,295.145905 241.164505,298.472046 241.132660,301.797424 
	C241.065781,308.782166 239.841461,310.005371 233.046448,310.001221 
	C231.893692,310.000519 230.740952,310.001099 229.249939,310.001099 
	C229.249939,301.759491 229.249939,293.702911 229.249939,285.622864 
	C237.669800,283.753296 240.070999,284.812378 241.097260,291.361816 
M236.074493,294.756134 
	C235.874985,292.989960 235.675476,291.223785 235.475967,289.457611 
	C235.139771,289.508331 234.803558,289.559052 234.467361,289.609802 
	C234.467361,294.765045 234.467361,299.920258 234.467361,305.075500 
	C235.003082,305.090271 235.538788,305.105042 236.074509,305.119843 
	C236.074509,301.971710 236.074509,298.823608 236.074493,294.756134 
z"/>
<path fill="#1D1C29" opacity="1.000000" stroke="none" 
	d="
M304.885071,271.881653 
	C304.925629,265.147491 304.925629,258.898468 304.925629,252.325592 
	C309.380127,252.325592 313.106537,252.325592 317.971680,252.325592 
	C315.899872,260.254395 314.165955,267.929016 311.691498,275.356934 
	C311.269867,276.622620 307.676575,276.831726 305.080994,277.682159 
	C304.972992,275.254974 304.908752,273.810913 304.885071,271.881653 
z"/>
<path fill="#0FC36C" opacity="1.000000" stroke="none" 
	d="
M311.017090,307.859802 
	C304.572906,312.476440 299.767029,309.807617 299.061035,301.391144 
	C300.595947,301.155731 302.155823,300.916504 304.766815,300.516052 
	C303.386566,298.513092 301.683594,297.033569 301.312286,295.273193 
	C300.740082,292.560364 300.289246,289.299713 301.336456,286.967133 
	C301.945923,285.609680 305.943481,284.604218 307.752747,285.263123 
	C309.816315,286.014648 311.141602,288.793365 312.787750,290.691101 
	C312.362274,291.263458 311.936798,291.835815 311.511322,292.408173 
	C309.480682,291.786682 307.450043,291.165161 304.814301,290.358429 
	C307.438843,295.815979 315.362030,299.728546 311.017090,307.859802 
z"/>
<path fill="#0AC269" opacity="1.000000" stroke="none" 
	d="
M257.153992,296.728638 
	C255.348892,299.518860 253.695511,301.940796 251.695786,304.869995 
	C253.991211,305.055206 255.708664,305.193756 257.792969,305.361938 
	C257.880493,306.785767 257.965790,308.173126 258.065643,309.797363 
	C253.631439,309.797363 249.536133,309.797363 245.305603,309.797363 
	C243.885117,301.927979 254.650879,298.238312 251.416397,289.911499 
	C251.101135,290.703674 250.729156,291.478973 250.486984,292.292877 
	C250.257645,293.063690 250.164444,293.875031 250.000977,294.722351 
	C248.401169,294.722351 246.961655,294.722351 245.552277,294.722351 
	C244.503357,287.105133 248.297592,283.095795 254.308853,285.232117 
	C258.102173,286.580231 259.008270,289.944733 257.153992,296.728638 
z"/>
<path fill="#13C46F" opacity="1.000000" stroke="none" 
	d="
M287.091278,284.945251 
	C295.108826,283.924591 297.355896,287.215881 296.320557,295.186310 
	C295.812073,299.100677 295.013092,299.532745 289.452515,300.483337 
	C289.452515,303.354523 289.452515,306.292938 289.452515,309.626617 
	C287.612915,309.626617 286.119415,309.626617 284.206757,309.626617 
	C284.206757,302.040649 284.135651,294.617615 284.313202,287.200592 
	C284.331635,286.431519 285.828339,285.697845 287.091278,284.945251 
z"/>
<path fill="#1D1C29" opacity="1.000000" stroke="none" 
	d="
M249.975128,313.590881 
	C254.250381,313.590942 258.031097,313.590942 261.915192,313.590942 
	C261.915192,315.821167 261.915192,317.575714 261.915192,319.654816 
	C250.529053,320.841980 240.111267,317.945099 229.785782,313.590820 
	C233.028625,313.590820 236.271484,313.590790 239.514343,313.590790 
	C242.836426,313.590790 246.158493,313.590851 249.975128,313.590881 
z"/>
<path fill="#04C065" opacity="1.000000" stroke="none" 
	d="
M261.103333,286.013916 
	C264.576477,285.296478 267.986572,285.025604 273.153503,284.615173 
	C267.115997,292.980347 269.642151,301.492401 268.834778,309.765686 
	C267.185425,309.765686 265.793701,309.765686 264.001526,309.765686 
	C264.001526,307.084137 263.863678,304.613525 264.029510,302.163483 
	C264.402679,296.650360 264.128418,291.297913 261.103333,286.013916 
z"/>
<path fill="#13C46F" opacity="1.000000" stroke="none" 
	d="
M275.574463,309.363892 
	C275.318481,301.234436 275.318481,293.487061 275.318481,285.347961 
	C276.816040,285.189209 278.184631,285.044128 279.888306,284.863525 
	C279.888306,293.231262 279.888306,301.260040 279.888306,309.745941 
	C278.593994,309.745941 277.212189,309.745941 275.574463,309.363892 
z"/>
<path fill="#5830DC" opacity="1.000000" stroke="none" 
	d="
M216.753281,127.955330 
	C217.802734,128.938370 218.481461,130.037949 219.529999,131.736679 
	C217.479477,131.416672 216.037201,131.191605 213.087967,130.731354 
	C216.600616,133.677933 219.036774,135.721497 221.472931,137.765060 
	C221.333206,138.079254 221.193497,138.393448 221.053772,138.707642 
	C217.495270,138.227661 213.936768,137.747681 209.954407,137.210526 
	C210.052902,135.059036 210.141571,133.122070 210.411026,130.898193 
	C212.522049,129.764816 214.452301,128.918335 216.753281,127.955330 
z"/>
<path fill="#E4E4E4" opacity="1.000000" stroke="none" 
	d="
M181.935226,294.002258 
	C181.996964,287.555328 186.695160,283.385834 193.079239,283.806976 
	C195.658768,283.977142 198.279053,283.529663 200.944199,284.276672 
	C198.961029,285.075470 196.977875,285.874237 194.537811,287.028870 
	C192.231567,288.605530 190.382233,289.826355 188.195862,291.073242 
	C184.261932,289.928589 183.349854,292.111115 182.767990,294.890442 
	C182.337753,294.526642 182.136490,294.264435 181.935226,294.002258 
z"/>
<path fill="#D4D4D4" opacity="1.000000" stroke="none" 
	d="
M200.102203,309.937714 
	C196.529984,309.794464 192.957764,309.651215 189.176300,308.820526 
	C188.933792,306.110657 188.900558,304.088196 189.321594,302.077209 
	C192.476135,302.044067 195.176437,301.999542 197.850311,302.301514 
	C196.252975,304.050049 194.938324,305.334290 197.714142,306.995148 
	C198.732468,307.604431 199.318817,308.935760 200.102203,309.937714 
z"/>
<path fill="#611CEB" opacity="1.000000" stroke="none" 
	d="
M303.946472,322.993896 
	C303.868256,319.809265 303.868256,317.022919 303.868256,313.944885 
	C308.055695,313.944885 311.807892,313.944885 315.560059,313.944885 
	C315.845825,314.307037 316.131592,314.669159 316.417358,315.031311 
	C312.286469,317.818268 308.155579,320.605225 303.946472,322.993896 
z"/>
<path fill="#171723" opacity="1.000000" stroke="none" 
	d="
M188.532883,291.047180 
	C190.382233,289.826355 192.231567,288.605530 194.426971,287.424622 
	C195.599625,287.976471 196.426208,288.488373 197.761597,289.447754 
	C198.521683,290.071991 198.772964,290.248718 198.680237,290.632996 
	C197.618774,292.462585 196.901352,294.084534 196.252777,295.550842 
	C194.158386,295.550842 192.354385,295.550842 190.355591,295.550842 
	C189.743881,294.039398 189.138382,292.543274 188.532883,291.047180 
z"/>
<path fill="#131313" opacity="1.000000" stroke="none" 
	d="
M200.439972,309.840057 
	C199.318817,308.935760 198.732468,307.604431 197.714142,306.995148 
	C194.938324,305.334290 196.252975,304.050049 198.124924,302.044830 
	C200.264420,300.905457 202.102890,300.369324 204.184616,300.141785 
	C204.597000,302.560272 204.766113,304.670135 204.935226,306.780029 
	C203.549408,307.767487 202.163574,308.754944 200.439972,309.840057 
z"/>
<path fill="#131313" opacity="1.000000" stroke="none" 
	d="
M188.867325,302.065765 
	C188.900558,304.088196 188.933792,306.110657 188.966400,308.499878 
	C184.476837,308.071289 182.446793,305.192932 182.424881,300.395447 
	C182.851334,299.668671 183.015488,299.382050 183.490158,299.249573 
	C185.489548,300.291077 187.178436,301.178436 188.867325,302.065765 
z"/>
<path fill="#C2C2C2" opacity="1.000000" stroke="none" 
	d="
M204.956238,307.059601 
	C204.766113,304.670135 204.597000,302.560272 204.204849,299.810242 
	C204.655838,297.777374 205.329865,296.384644 206.363159,295.099121 
	C207.466324,295.122742 208.210236,295.039154 208.954147,294.955597 
	C209.464676,299.700867 209.642807,304.370392 205.901260,308.125946 
	C205.817917,308.209595 205.522842,308.236176 205.474869,308.174316 
	C205.277725,307.920197 205.138062,307.621460 204.956238,307.059601 
z"/>
<path fill="#611CEB" opacity="1.000000" stroke="none" 
	d="
M160.389542,276.877869 
	C161.060043,274.834290 161.961517,272.673645 163.394287,270.956207 
	C164.027817,270.196808 165.737915,270.335510 167.006073,270.413879 
	C167.361893,272.640289 167.670929,274.519318 168.069199,276.941040 
	C165.629425,276.941040 163.233002,276.941040 160.389542,276.877869 
z"/>
<path fill="#1D1C29" opacity="1.000000" stroke="none" 
	d="
M209.011749,294.583069 
	C208.210236,295.039154 207.466324,295.122742 206.289368,294.794556 
	C205.039520,293.193665 204.222733,292.004517 203.304199,290.510498 
	C203.079071,289.795502 202.955673,289.385437 202.832291,288.975342 
	C202.832291,288.114075 202.832291,287.252838 202.832291,286.391571 
	C203.189575,286.123474 203.546860,285.855347 203.904160,285.587250 
	C205.625885,288.461670 207.347626,291.336090 209.011749,294.583069 
z"/>
<path fill="#FAFCFC" opacity="1.000000" stroke="none" 
	d="
M183.179642,299.095459 
	C183.015488,299.382050 182.851334,299.668671 182.439697,300.011841 
	C178.916397,298.591522 179.343887,296.498138 181.572372,294.083801 
	C182.136490,294.264435 182.337753,294.526642 182.738983,295.225525 
	C183.019180,296.806641 183.099411,297.951050 183.179642,299.095459 
z"/>
<path fill="#E4E4E4" opacity="1.000000" stroke="none" 
	d="
M202.417694,288.970062 
	C202.955673,289.385437 203.079071,289.795502 202.966736,290.580566 
	C201.495438,290.778839 200.259842,290.602112 199.024246,290.425415 
	C198.772964,290.248718 198.521683,290.071991 198.056000,289.487366 
	C199.228775,289.041229 200.615936,289.003021 202.417694,288.970062 
z"/>
<path fill="#5F1AEB" opacity="1.000000" stroke="none" 
	d="
M139.724060,276.904907 
	C136.005264,277.499969 135.542358,275.025146 135.118073,272.504730 
	C129.216629,237.447922 136.222672,205.197220 156.576904,176.048523 
	C161.019531,169.686356 166.559448,164.090378 171.875824,157.923584 
	C177.355301,161.419235 177.314880,166.217255 174.658905,172.043121 
	C171.563156,179.164093 168.818680,185.725998 166.074188,192.287903 
	C165.139572,195.355545 163.966965,198.375076 163.334335,201.503784 
	C162.639969,204.937790 162.443298,208.472458 161.679474,212.645508 
	C161.262909,225.843658 161.196640,238.359573 161.130386,250.875488 
	C161.576385,255.762482 159.630035,259.194458 154.596786,259.674042 
	C149.582092,260.151825 148.310257,264.603363 145.645309,267.408417 
	C143.202118,269.980072 141.813828,273.553925 139.724060,276.904907 
z"/>
<path fill="#FAFCFC" opacity="1.000000" stroke="none" 
	d="
M161.426300,250.686310 
	C161.196640,238.359573 161.262909,225.843658 161.673157,213.088654 
	C165.371109,215.887421 168.725067,218.925293 173.737579,223.465408 
	C172.250641,228.574936 170.371384,235.593689 168.076279,242.473709 
	C167.581985,243.955460 165.440948,244.817261 164.326172,246.183121 
	C163.274734,247.471390 162.576080,249.047577 161.426300,250.686310 
z"/>
<path fill="#F0F2FA" opacity="1.000000" stroke="none" 
	d="
M166.405792,192.145737 
	C168.818680,185.725998 171.563156,179.164093 174.579025,172.426086 
	C174.030060,177.105316 177.001480,182.513947 172.999222,186.851913 
	C171.183624,188.819778 168.840958,190.301376 166.405792,192.145737 
z"/>
<path fill="#B8EDD4" opacity="1.000000" stroke="none" 
	d="
M218.071884,305.074219 
	C217.663132,299.751465 217.663132,294.630798 217.663132,288.964905 
	C220.468491,292.309998 220.666916,301.432037 218.071884,305.074219 
z"/>
<path fill="#FAFCFC" opacity="1.000000" stroke="none" 
	d="
M236.074493,295.215820 
	C236.074509,298.823608 236.074509,301.971710 236.074509,305.119843 
	C235.538788,305.105042 235.003082,305.090271 234.467361,305.075500 
	C234.467361,299.920258 234.467361,294.765045 234.467361,289.609802 
	C234.803558,289.559052 235.139771,289.508331 235.475967,289.457611 
	C235.675476,291.223785 235.874985,292.989960 236.074493,295.215820 
z"/>
<path fill="#FCFDFD" opacity="1.000000" stroke="none" 
	d="
M198.680237,290.632996 
	C200.259842,290.602112 201.495438,290.778839 203.068497,290.885437 
	C204.222733,292.004517 205.039520,293.193665 205.930115,294.687378 
	C205.329865,296.384644 204.655838,297.777374 203.961578,299.501648 
	C202.102890,300.369324 200.264420,300.905457 198.151337,301.698303 
	C195.176437,301.999542 192.476135,302.044067 189.321594,302.077209 
	C187.178436,301.178436 185.489548,300.291077 183.490158,299.249573 
	C183.099411,297.951050 183.019180,296.806641 182.967957,295.327148 
	C183.349854,292.111115 184.261932,289.928589 188.195862,291.073242 
	C189.138382,292.543274 189.743881,294.039398 190.355591,295.550842 
	C192.354385,295.550842 194.158386,295.550842 196.252777,295.550842 
	C196.901352,294.084534 197.618774,292.462585 198.680237,290.632996 
M198.505737,298.357788 
	C198.505737,298.357788 198.370514,298.615326 198.370514,298.615326 
	C198.370514,298.615326 198.647827,298.569946 198.505737,298.357788 
z"/>
<path fill="#E4E4E4" opacity="1.000000" stroke="none" 
	d="
M198.576782,298.463867 
	C198.647827,298.569946 198.370514,298.615326 198.370514,298.615326 
	C198.370514,298.615326 198.505737,298.357788 198.576782,298.463867 
z"/>
</svg>